<svg width="90" height="49" viewBox="0 0 90 49" fill="none" xmlns="http://www.w3.org/2000/svg">
<path d="M7.52395 48.1994L26.9398 42.934L26.0861 39.786L10.1387 44.1108L3.66175 20.2274L0.193277 21.168L7.52395 48.1994ZM31.1623 41.7889L34.6308 40.8483L27.3001 13.8168L23.8316 14.7575L31.1623 41.7889ZM41.7939 38.9057L51.3134 36.3241C58.7558 34.3665 62.4207 27.8075 60.0807 19.4773C57.8863 11.0873 51.3893 7.20314 43.9827 9.29269L34.4633 11.8743L41.7939 38.9057ZM44.4087 34.8171L38.7906 14.1005L44.4645 12.5618C50.4401 10.9413 54.7821 13.6694 56.602 20.3802C58.4219 27.0909 56.0582 31.6578 50.0827 33.2784L44.4087 34.8171ZM64.0479 18.3609C66.2591 26.888 73.2082 30.8721 80.4263 28.8337C87.6665 26.9512 91.6695 19.997 89.2697 11.521C87.0584 2.99392 80.0904 -0.985079 72.8912 1.04824C65.6322 2.93586 61.6481 9.88496 64.0479 18.3609ZM79.3841 25.7368C74.2396 27.2129 69.249 24.0333 67.5163 17.4203C65.6706 10.838 68.3761 5.59152 73.5564 4.24737L73.9334 4.14513C79.0454 2.6981 84.0497 5.85376 85.7823 12.4667C87.6281 19.049 84.9089 24.3195 79.7611 25.6346L79.3841 25.7368Z" fill="black"/>
</svg>
